<svg xmlns="http://www.w3.org/2000/svg" viewBox="0 0 100 100" preserveAspectRatio="xMidYMid" width="521" height="521" style="shape-rendering: auto; display: block; background: rgb(255, 255, 255);" xmlns:xlink="http://www.w3.org/1999/xlink"><g><g transform="rotate(0 50 50)">
  <rect fill="#0099e5" height="10" width="1" ry="5" rx="0.5" y="25" x="49.5">
    <animate repeatCount="indefinite" begin="-1.1029411764705883s" dur="1.1764705882352942s" keyTimes="0;1" values="1;0" attributeName="opacity"></animate>
  </rect>
</g><g transform="rotate(22.5 50 50)">
  <rect fill="#0099e5" height="10" width="1" ry="5" rx="0.5" y="25" x="49.5">
    <animate repeatCount="indefinite" begin="-1.0294117647058825s" dur="1.1764705882352942s" keyTimes="0;1" values="1;0" attributeName="opacity"></animate>
  </rect>
</g><g transform="rotate(45 50 50)">
  <rect fill="#0099e5" height="10" width="1" ry="5" rx="0.5" y="25" x="49.5">
    <animate repeatCount="indefinite" begin="-0.9558823529411765s" dur="1.1764705882352942s" keyTimes="0;1" values="1;0" attributeName="opacity"></animate>
  </rect>
</g><g transform="rotate(67.5 50 50)">
  <rect fill="#0099e5" height="10" width="1" ry="5" rx="0.5" y="25" x="49.5">
    <animate repeatCount="indefinite" begin="-0.8823529411764706s" dur="1.1764705882352942s" keyTimes="0;1" values="1;0" attributeName="opacity"></animate>
  </rect>
</g><g transform="rotate(90 50 50)">
  <rect fill="#0099e5" height="10" width="1" ry="5" rx="0.5" y="25" x="49.5">
    <animate repeatCount="indefinite" begin="-0.8088235294117647s" dur="1.1764705882352942s" keyTimes="0;1" values="1;0" attributeName="opacity"></animate>
  </rect>
</g><g transform="rotate(112.5 50 50)">
  <rect fill="#0099e5" height="10" width="1" ry="5" rx="0.5" y="25" x="49.5">
    <animate repeatCount="indefinite" begin="-0.7352941176470589s" dur="1.1764705882352942s" keyTimes="0;1" values="1;0" attributeName="opacity"></animate>
  </rect>
</g><g transform="rotate(135 50 50)">
  <rect fill="#0099e5" height="10" width="1" ry="5" rx="0.5" y="25" x="49.5">
    <animate repeatCount="indefinite" begin="-0.6617647058823529s" dur="1.1764705882352942s" keyTimes="0;1" values="1;0" attributeName="opacity"></animate>
  </rect>
</g><g transform="rotate(157.5 50 50)">
  <rect fill="#0099e5" height="10" width="1" ry="5" rx="0.5" y="25" x="49.5">
    <animate repeatCount="indefinite" begin="-0.5882352941176471s" dur="1.1764705882352942s" keyTimes="0;1" values="1;0" attributeName="opacity"></animate>
  </rect>
</g><g transform="rotate(180 50 50)">
  <rect fill="#0099e5" height="10" width="1" ry="5" rx="0.5" y="25" x="49.5">
    <animate repeatCount="indefinite" begin="-0.5147058823529412s" dur="1.1764705882352942s" keyTimes="0;1" values="1;0" attributeName="opacity"></animate>
  </rect>
</g><g transform="rotate(202.5 50 50)">
  <rect fill="#0099e5" height="10" width="1" ry="5" rx="0.5" y="25" x="49.5">
    <animate repeatCount="indefinite" begin="-0.4411764705882353s" dur="1.1764705882352942s" keyTimes="0;1" values="1;0" attributeName="opacity"></animate>
  </rect>
</g><g transform="rotate(225 50 50)">
  <rect fill="#0099e5" height="10" width="1" ry="5" rx="0.5" y="25" x="49.5">
    <animate repeatCount="indefinite" begin="-0.36764705882352944s" dur="1.1764705882352942s" keyTimes="0;1" values="1;0" attributeName="opacity"></animate>
  </rect>
</g><g transform="rotate(247.5 50 50)">
  <rect fill="#0099e5" height="10" width="1" ry="5" rx="0.5" y="25" x="49.5">
    <animate repeatCount="indefinite" begin="-0.29411764705882354s" dur="1.1764705882352942s" keyTimes="0;1" values="1;0" attributeName="opacity"></animate>
  </rect>
</g><g transform="rotate(270 50 50)">
  <rect fill="#0099e5" height="10" width="1" ry="5" rx="0.5" y="25" x="49.5">
    <animate repeatCount="indefinite" begin="-0.22058823529411764s" dur="1.1764705882352942s" keyTimes="0;1" values="1;0" attributeName="opacity"></animate>
  </rect>
</g><g transform="rotate(292.5 50 50)">
  <rect fill="#0099e5" height="10" width="1" ry="5" rx="0.5" y="25" x="49.5">
    <animate repeatCount="indefinite" begin="-0.14705882352941177s" dur="1.1764705882352942s" keyTimes="0;1" values="1;0" attributeName="opacity"></animate>
  </rect>
</g><g transform="rotate(315 50 50)">
  <rect fill="#0099e5" height="10" width="1" ry="5" rx="0.5" y="25" x="49.5">
    <animate repeatCount="indefinite" begin="-0.07352941176470588s" dur="1.1764705882352942s" keyTimes="0;1" values="1;0" attributeName="opacity"></animate>
  </rect>
</g><g transform="rotate(337.5 50 50)">
  <rect fill="#0099e5" height="10" width="1" ry="5" rx="0.5" y="25" x="49.5">
    <animate repeatCount="indefinite" begin="0s" dur="1.1764705882352942s" keyTimes="0;1" values="1;0" attributeName="opacity"></animate>
  </rect>
</g><g></g></g><!-- [ldio] generated by https://loading.io --></svg>